<svg viewBox="0 0 120 70" fill="none" xmlns="http://www.w3.org/2000/svg">
  <path d="M93.5 35.1c-1.3-15.1-13.3-27.1-28.5-27.1c-11.2 0-21 6.5-25.9 16c-3.1-2.4-7-3.9-11.3-3.9C18.2 20.1 9 29.3 9 40.7C9 52.1 18.2 61.3 29.6 61.3h61.7c10 0 18.2-8.2 18.2-18.2C109.5 37 102.5 35.4 93.5 35.1z" fill="#FFFFFF" />
  <path d="M 23 42.5 c 1 0 1.5 -0.5 1.5 -1.5 c 0 1 0.5 1.5 1.5 1.5 c -1 0 -1.5 0.5 -1.5 1.5 c 0 -1 -0.5 -1.5 -1.5 -1.5 Z" fill="#171717" />
  <path d="M 94 42.5 c 1 0 1.5 -0.5 1.5 -1.5 c 0 1 0.5 1.5 1.5 1.5 c -1 0 -1.5 0.5 -1.5 1.5 c 0 -1 -0.5 -1.5 -1.5 -1.5 Z" fill="#171717" />
  <text x="59" y="44" fill="#171717" font-family="'Inter', ui-sans-serif, system-ui, -apple-system, BlinkMacSystemFont, 'Segoe UI', Roboto, sans-serif" font-size="5.2" font-weight="700" letter-spacing="3.5" text-anchor="middle">DREAMABLE</text>
</svg>
